# xmcd
#
# Track frame offsets:
#	150
#	16126
#	29445
#	45298
#	62691
#	78018
#	93527
#	113399
#	130856
#	146095
#	158295
#	176468
#
# Disc length: 2529 seconds
#
# Revision: 0
# Processed by: cddbd v1.4PL0 Copyright (c) Steve Scherf et al.
# Submitted via: dBpowerAMP V4.0
#
DISCID=8109df0c
DTITLE=Aubrey Collins - back to me
DYEAR=1900
DGENRE=Country
TTITLE0=Anywhere She Dreams
TTITLE1=What I Really Mean to Say
TTITLE2=Back to Me
TTITLE3=With You
TTITLE4=What You Doin to Me
TTITLE5=Rebound
TTITLE6=Up and Flying
TTITLE7=You're Gone
TTITLE8=You Say
TTITLE9=Roses For No Reason
TTITLE10=Every Mom's Dream
TTITLE11=I'm Dancin
EXTD=
EXTT0=
EXTT1=
EXTT2=
EXTT3=
EXTT4=
EXTT5=
EXTT6=
EXTT7=
EXTT8=
EXTT9=
EXTT10=
EXTT11=
PLAYORDER=
